# Blender v2.74 (sub 0) OBJ File: 'Base.blend'
# www.blender.org
mtllib Base.mtl
o Cube
v -0.252648 -0.398426 -0.000000
v -0.318743 0.543076 -0.075269
v 0.357410 0.193695 0.000000
v -0.000000 0.193695 0.357410
v -0.357410 0.193695 -0.000000
v 0.000000 0.193695 -0.357410
v -0.000000 0.602147 0.000000
v -0.075269 0.543076 0.318743
v 0.075269 0.543076 -0.318743
v 0.318743 0.543076 0.075269
v -0.195146 -0.737361 -0.000000
v -0.000000 -0.398426 0.252648
v 0.000000 -0.398426 -0.252648
v 0.252648 -0.398426 -0.000000
v 0.000000 -0.774485 -0.000000
v -0.000000 -0.737361 0.195146
v 0.000000 -0.737361 -0.195146
v 0.195146 -0.737361 -0.000000
v 0.267922 -0.099490 0.000000
v 0.000000 -0.099490 -0.267923
v 0.268058 0.193695 -0.268057
v -0.000000 -0.099490 0.267922
v 0.268057 0.193695 0.268058
v -0.267922 -0.099490 -0.000000
v -0.268058 0.193695 0.268057
v -0.268058 0.193695 -0.268058
v 0.411041 0.426195 0.018817
v 0.018817 0.426195 -0.411040
v -0.018817 0.426195 0.411041
v -0.411041 0.426195 -0.018817
v 0.156426 0.587379 0.094086
v 0.094086 0.587379 -0.156426
v -0.094086 0.587379 0.156427
v -0.156427 0.587379 -0.094086
v -0.182606 0.543076 -0.295509
v -0.295509 0.543076 0.182606
v 0.182606 0.543076 0.295509
v 0.295509 0.543076 -0.182606
v 0.249189 -0.634066 -0.000000
v 0.000000 -0.634066 -0.249189
v -0.000000 -0.634066 0.249189
v -0.249189 -0.634066 -0.000000
v -0.189486 -0.398426 0.189486
v -0.189486 -0.398426 -0.189486
v 0.189486 -0.398426 0.189486
v 0.189486 -0.398426 -0.189486
v 0.106692 -0.765204 -0.000000
v 0.000000 -0.765204 -0.106692
v 0.000000 -0.765204 0.106691
v -0.106691 -0.765204 -0.000000
v -0.146359 -0.737361 0.146359
v -0.146359 -0.737361 -0.146359
v 0.146359 -0.737361 0.146359
v 0.146359 -0.737361 -0.146359
v 0.200942 -0.099490 -0.200942
v 0.200942 -0.099490 0.200942
v -0.200942 -0.099490 0.200942
v -0.200942 -0.099490 -0.200942
v 0.322393 0.426195 -0.294167
v 0.294167 0.426195 0.322393
v -0.322393 0.426195 0.294167
v -0.294168 0.426195 -0.322393
v 0.198897 0.575893 -0.081812
v 0.081812 0.575893 0.198897
v -0.198897 0.575893 0.081812
v -0.081812 0.575893 -0.198897
v 0.186892 -0.634065 -0.186892
v 0.186892 -0.634065 0.186892
v -0.186892 -0.634065 0.186892
v -0.186892 -0.634065 -0.186892
v 0.090784 -0.757985 -0.090784
v 0.090784 -0.757985 0.090784
v -0.090784 -0.757985 0.090784
v -0.090784 -0.757985 -0.090784
vn -0.947600 -0.048400 0.315900
vn -0.947600 -0.048400 -0.315900
vn -0.948600 -0.013900 -0.316200
vn -0.948600 -0.013900 0.316200
vn -0.727200 0.589800 -0.351200
vn -0.827100 0.538200 0.162100
vn -0.279900 0.959900 0.013000
vn -0.227000 0.956900 -0.181000
vn 0.911200 -0.278100 -0.303700
vn 0.932500 -0.221000 -0.285700
vn 0.919700 -0.209900 0.331800
vn 0.911200 -0.278100 0.303800
vn 0.303700 -0.278100 0.911200
vn 0.285700 -0.221000 0.932500
vn -0.331800 -0.209900 0.919700
vn -0.303800 -0.278100 0.911200
vn -0.911200 -0.278100 0.303700
vn -0.932500 -0.221000 0.285700
vn -0.919700 -0.209900 -0.331800
vn -0.911200 -0.278100 -0.303800
vn 0.331800 -0.209900 -0.919700
vn 0.303800 -0.278100 -0.911200
vn -0.303700 -0.278100 -0.911200
vn -0.285700 -0.221000 -0.932500
vn 0.118800 0.992500 -0.029600
vn -0.029600 0.992500 -0.118800
vn -0.118800 0.992500 0.029600
vn 0.029600 0.992500 0.118800
vn -0.351200 0.589800 0.727200
vn 0.162100 0.538200 0.827100
vn 0.013000 0.959900 0.279900
vn -0.181000 0.956900 0.227000
vn 0.351200 0.589800 -0.727200
vn -0.162100 0.538200 -0.827100
vn -0.013000 0.959900 -0.279900
vn 0.181000 0.956900 -0.227000
vn 0.727200 0.589800 0.351200
vn 0.827100 0.538200 -0.162100
vn 0.279900 0.959900 -0.013000
vn 0.227000 0.956900 0.181000
vn -0.849800 -0.444600 0.283300
vn -0.849800 -0.444600 -0.283300
vn -0.280300 -0.954100 -0.105500
vn -0.280300 -0.954100 0.105500
vn 0.315900 -0.048400 0.947600
vn -0.315900 -0.048400 0.947600
vn -0.316200 -0.013900 0.948600
vn 0.316200 -0.013900 0.948600
vn -0.315900 -0.048400 -0.947600
vn 0.315900 -0.048400 -0.947600
vn 0.316200 -0.013900 -0.948600
vn -0.316200 -0.013900 -0.948600
vn 0.947600 -0.048400 -0.315900
vn 0.947600 -0.048400 0.315900
vn 0.948600 -0.013900 0.316200
vn 0.948600 -0.013900 -0.316200
vn 0.090100 -0.991800 -0.090100
vn 0.090100 -0.991800 0.090100
vn -0.090100 -0.991800 0.090100
vn -0.090100 -0.991800 -0.090100
vn 0.283300 -0.444600 0.849800
vn -0.283300 -0.444600 0.849800
vn -0.105500 -0.954100 0.280300
vn 0.105500 -0.954100 0.280300
vn -0.283300 -0.444600 -0.849800
vn 0.283300 -0.444600 -0.849800
vn 0.105500 -0.954100 -0.280300
vn -0.105500 -0.954100 -0.280300
vn 0.849800 -0.444600 -0.283300
vn 0.849800 -0.444600 0.283300
vn 0.280300 -0.954100 0.105500
vn 0.280300 -0.954100 -0.105500
usemtl Material
s off
f 1//1 43//1 57//1 24//1
f 1//2 24//2 58//2 44//2
f 1//3 44//3 70//3 42//3
f 1//4 42//4 69//4 43//4
f 2//5 35//5 62//5 30//5
f 2//6 30//6 61//6 36//6
f 2//7 36//7 65//7 34//7
f 2//8 34//8 66//8 35//8
f 3//9 19//9 55//9 21//9
f 3//10 21//10 59//10 27//10
f 3//11 27//11 60//11 23//11
f 3//12 23//12 56//12 19//12
f 4//13 22//13 56//13 23//13
f 4//14 23//14 60//14 29//14
f 4//15 29//15 61//15 25//15
f 4//16 25//16 57//16 22//16
f 5//17 24//17 57//17 25//17
f 5//18 25//18 61//18 30//18
f 5//19 30//19 62//19 26//19
f 5//20 26//20 58//20 24//20
f 6//21 28//21 59//21 21//21
f 6//22 21//22 55//22 20//22
f 6//23 20//23 58//23 26//23
f 6//24 26//24 62//24 28//24
f 7//25 31//25 63//25 32//25
f 7//26 32//26 66//26 34//26
f 7//27 34//27 65//27 33//27
f 7//28 33//28 64//28 31//28
f 8//29 36//29 61//29 29//29
f 8//30 29//30 60//30 37//30
f 8//31 37//31 64//31 33//31
f 8//32 33//32 65//32 36//32
f 9//33 38//33 59//33 28//33
f 9//34 28//34 62//34 35//34
f 9//35 35//35 66//35 32//35
f 9//36 32//36 63//36 38//36
f 10//37 37//37 60//37 27//37
f 10//38 27//38 59//38 38//38
f 10//39 38//39 63//39 31//39
f 10//40 31//40 64//40 37//40
f 11//41 51//41 69//41 42//41
f 11//42 42//42 70//42 52//42
f 11//43 52//43 74//43 50//43
f 11//44 50//44 73//44 51//44
f 12//45 45//45 56//45 22//45
f 12//46 22//46 57//46 43//46
f 12//47 43//47 69//47 41//47
f 12//48 41//48 68//48 45//48
f 13//49 44//49 58//49 20//49
f 13//50 20//50 55//50 46//50
f 13//51 46//51 67//51 40//51
f 13//52 40//52 70//52 44//52
f 14//53 46//53 55//53 19//53
f 14//54 19//54 56//54 45//54
f 14//55 45//55 68//55 39//55
f 14//56 39//56 67//56 46//56
f 15//57 48//57 71//57 47//57
f 15//58 47//58 72//58 49//58
f 15//59 49//59 73//59 50//59
f 15//60 50//60 74//60 48//60
f 16//61 53//61 68//61 41//61
f 16//62 41//62 69//62 51//62
f 16//63 51//63 73//63 49//63
f 16//64 49//64 72//64 53//64
f 17//65 52//65 70//65 40//65
f 17//66 40//66 67//66 54//66
f 17//67 54//67 71//67 48//67
f 17//68 48//68 74//68 52//68
f 18//69 54//69 67//69 39//69
f 18//70 39//70 68//70 53//70
f 18//71 53//71 72//71 47//71
f 18//72 47//72 71//72 54//72
