# Blender v2.74 (sub 0) OBJ File: 'Base.blend'
# www.blender.org
mtllib Base.mtl
v -0.521996 -0.823187 -0.000000
v -0.658554 1.122047 -0.155512
v 0.738444 0.400192 0.000000
v -0.000000 0.400192 0.738444
v -0.738444 0.400192 -0.000000
v 0.000000 0.400192 -0.738444
v -0.000000 1.244094 0.000000
v -0.155513 1.122047 0.658554
v 0.155512 1.122047 -0.658553
v 0.658554 1.122047 0.155513
v -0.403190 -1.523459 -0.000000
v -0.000000 -0.823187 0.521996
v 0.000000 -0.823187 -0.521996
v 0.521996 -0.823187 -0.000000
v 0.000000 -1.600160 -0.000000
v -0.000000 -1.523459 0.403189
v 0.000000 -1.523459 -0.403190
v 0.403190 -1.523459 -0.000000
v 0.553554 -0.205557 0.000000
v 0.000000 -0.205557 -0.553554
v 0.553833 0.400192 -0.553833
v -0.000000 -0.205557 0.553554
v 0.553833 0.400192 0.553833
v -0.553554 -0.205557 -0.000000
v -0.553833 0.400192 0.553833
v -0.553833 0.400192 -0.553833
v 0.849249 0.880560 0.038879
v 0.038878 0.880560 -0.849249
v -0.038878 0.880560 0.849249
v -0.849249 0.880560 -0.038878
v 0.323192 1.213582 0.194391
v 0.194390 1.213582 -0.323192
v -0.194391 1.213582 0.323192
v -0.323192 1.213582 -0.194390
v -0.377281 1.122047 -0.610549
v -0.610550 1.122047 0.377281
v 0.377281 1.122047 0.610550
v 0.610550 1.122047 -0.377281
v 0.514848 -1.310040 -0.000000
v 0.000000 -1.310040 -0.514849
v -0.000000 -1.310040 0.514848
v -0.514848 -1.310040 -0.000000
v -0.391497 -0.823187 0.391497
v -0.391497 -0.823187 -0.391497
v 0.391497 -0.823187 0.391497
v 0.391497 -0.823187 -0.391497
v 0.220435 -1.580985 -0.000000
v 0.000000 -1.580985 -0.220435
v 0.000000 -1.580985 0.220435
v -0.220435 -1.580985 -0.000000
v -0.302392 -1.523459 0.302392
v -0.302392 -1.523459 -0.302392
v 0.302392 -1.523459 0.302392
v 0.302392 -1.523459 -0.302392
v 0.415165 -0.205557 -0.415165
v 0.415165 -0.205557 0.415165
v -0.415165 -0.205557 0.415165
v -0.415165 -0.205557 -0.415165
v 0.666096 0.880560 -0.607778
v 0.607778 0.880560 0.666096
v -0.666096 0.880560 0.607778
v -0.607778 0.880560 -0.666096
v 0.410940 1.189851 -0.169032
v 0.169032 1.189851 0.410940
v -0.410940 1.189851 0.169032
v -0.169032 1.189851 -0.410940
v 0.386136 -1.310040 -0.386136
v 0.386136 -1.310040 0.386136
v -0.386136 -1.310040 0.386136
v -0.386136 -1.310040 -0.386137
v 0.187569 -1.566071 -0.187569
v 0.187569 -1.566071 0.187569
v -0.187569 -1.566071 0.187569
v -0.187569 -1.566071 -0.187569
vn -0.947600 -0.048400 0.315900
vn -0.947600 -0.048400 -0.315900
vn -0.948600 -0.013900 -0.316200
vn -0.948600 -0.013900 0.316200
vn -0.622000 0.682100 -0.384500
vn -0.866900 0.433800 0.245500
vn -0.296400 0.954700 0.026700
vn -0.127400 0.972000 -0.197200
vn 0.911200 -0.278100 -0.303700
vn 0.918800 -0.249100 -0.306300
vn 0.917000 -0.185500 0.353000
vn 0.911200 -0.278100 0.303800
vn 0.303700 -0.278100 0.911200
vn 0.306300 -0.249100 0.918800
vn -0.353000 -0.185500 0.917000
vn -0.303800 -0.278100 0.911200
vn -0.911200 -0.278100 0.303700
vn -0.918800 -0.249100 0.306300
vn -0.917000 -0.185500 -0.353000
vn -0.911200 -0.278100 -0.303800
vn 0.353000 -0.185500 -0.917000
vn 0.303800 -0.278100 -0.911200
vn -0.303700 -0.278100 -0.911200
vn -0.306300 -0.249100 -0.918800
vn 0.115900 0.992600 -0.036800
vn -0.036800 0.992600 -0.115900
vn -0.115900 0.992600 0.036800
vn 0.036800 0.992600 0.115900
vn -0.384500 0.682100 0.622000
vn 0.245500 0.433800 0.866900
vn 0.026700 0.954700 0.296400
vn -0.197200 0.972000 0.127400
vn 0.384500 0.682100 -0.622000
vn -0.245500 0.433800 -0.866900
vn -0.026700 0.954700 -0.296400
vn 0.197200 0.972000 -0.127400
vn 0.622000 0.682100 0.384500
vn 0.866900 0.433800 -0.245500
vn 0.296400 0.954700 -0.026700
vn 0.127400 0.972000 0.197200
vn -0.849800 -0.444600 0.283300
vn -0.849800 -0.444600 -0.283300
vn -0.267100 -0.959600 -0.089000
vn -0.297800 -0.946100 0.127400
vn 0.315900 -0.048400 0.947600
vn -0.315900 -0.048400 0.947600
vn -0.316200 -0.013900 0.948600
vn 0.316200 -0.013900 0.948600
vn -0.315900 -0.048400 -0.947600
vn 0.315900 -0.048400 -0.947600
vn 0.316200 -0.013900 -0.948600
vn -0.316200 -0.013900 -0.948600
vn 0.947600 -0.048400 -0.315900
vn 0.947600 -0.048400 0.315900
vn 0.948600 -0.013900 0.316200
vn 0.948600 -0.013900 -0.316200
vn 0.094000 -0.991800 -0.086300
vn 0.086300 -0.991800 0.094000
vn -0.094000 -0.991800 0.086300
vn -0.086300 -0.991800 -0.094000
vn 0.283300 -0.444600 0.849800
vn -0.283300 -0.444600 0.849800
vn -0.089000 -0.959600 0.267100
vn 0.127400 -0.946100 0.297800
vn -0.283300 -0.444600 -0.849800
vn 0.283300 -0.444600 -0.849800
vn 0.089000 -0.959600 -0.267100
vn -0.127400 -0.946100 -0.297800
vn 0.849800 -0.444600 -0.283300
vn 0.849800 -0.444600 0.283300
vn 0.267100 -0.959600 0.089000
vn 0.297800 -0.946100 -0.127400
vn -0.813100 0.490900 -0.313000
vn -0.766400 0.638600 0.069100
vn -0.263400 0.964700 -0.000600
vn -0.277900 0.945100 -0.171800
vn 0.943500 -0.196000 -0.267200
vn 0.921600 -0.237400 0.307200
vn 0.911200 -0.278100 0.303700
vn 0.267200 -0.196000 0.943500
vn -0.307200 -0.237400 0.921600
vn -0.943500 -0.196000 0.267200
vn -0.921600 -0.237400 -0.307200
vn 0.307200 -0.237400 -0.921600
vn -0.267200 -0.196000 -0.943500
vn 0.122800 0.992200 -0.019800
vn -0.019800 0.992200 -0.122800
vn -0.122800 0.992200 0.019800
vn 0.019800 0.992200 0.122800
vn -0.313000 0.490900 0.813100
vn 0.069100 0.638600 0.766400
vn -0.000600 0.964700 0.263400
vn -0.171800 0.945100 0.277900
vn 0.313000 0.490900 -0.813100
vn -0.069100 0.638600 -0.766400
vn 0.000600 0.964700 -0.263400
vn 0.171800 0.945100 -0.277900
vn 0.813100 0.490900 0.313000
vn 0.766400 0.638600 -0.069100
vn 0.263400 0.964700 0.000600
vn 0.277900 0.945100 0.171800
vn -0.297800 -0.946100 -0.127400
vn -0.267100 -0.959600 0.089000
vn 0.086300 -0.991800 -0.094000
vn 0.094000 -0.991800 0.086300
vn -0.086300 -0.991800 0.094000
vn -0.094000 -0.991800 -0.086300
vn -0.127400 -0.946100 0.297800
vn 0.089000 -0.959600 0.267100
vn 0.127400 -0.946100 -0.297800
vn -0.089000 -0.959600 -0.267100
vn 0.297800 -0.946100 0.127400
vn 0.267100 -0.959600 -0.089000
usemtl Material
s off
f 43//1 57//1 24//1
f 24//2 58//2 44//2
f 1//3 44//3 70//3
f 1//4 42//4 69//4
f 2//5 35//5 62//5
f 30//6 61//6 36//6
f 2//7 36//7 65//7
f 34//8 66//8 35//8
f 3//9 19//9 55//9
f 3//10 21//10 59//10
f 27//11 60//11 23//11
f 3//12 23//12 56//12
f 4//13 22//13 56//13
f 4//14 23//14 60//14
f 29//15 61//15 25//15
f 4//16 25//16 57//16
f 5//17 24//17 57//17
f 5//18 25//18 61//18
f 30//19 62//19 26//19
f 5//20 26//20 58//20
f 28//21 59//21 21//21
f 6//22 21//22 55//22
f 6//23 20//23 58//23
f 6//24 26//24 62//24
f 7//25 31//25 63//25
f 7//26 32//26 66//26
f 7//27 34//27 65//27
f 7//28 33//28 64//28
f 8//29 36//29 61//29
f 29//30 60//30 37//30
f 8//31 37//31 64//31
f 33//32 65//32 36//32
f 9//33 38//33 59//33
f 28//34 62//34 35//34
f 9//35 35//35 66//35
f 32//36 63//36 38//36
f 10//37 37//37 60//37
f 27//38 59//38 38//38
f 10//39 38//39 63//39
f 31//40 64//40 37//40
f 51//41 69//41 42//41
f 42//42 70//42 52//42
f 11//43 52//43 74//43
f 11//44 50//44 73//44
f 45//45 56//45 22//45
f 22//46 57//46 43//46
f 12//47 43//47 69//47
f 12//48 41//48 68//48
f 44//49 58//49 20//49
f 20//50 55//50 46//50
f 13//51 46//51 67//51
f 13//52 40//52 70//52
f 46//53 55//53 19//53
f 19//54 56//54 45//54
f 14//55 45//55 68//55
f 14//56 39//56 67//56
f 15//57 48//57 71//57
f 15//58 47//58 72//58
f 15//59 49//59 73//59
f 15//60 50//60 74//60
f 53//61 68//61 41//61
f 41//62 69//62 51//62
f 16//63 51//63 73//63
f 16//64 49//64 72//64
f 52//65 70//65 40//65
f 40//66 67//66 54//66
f 17//67 54//67 71//67
f 17//68 48//68 74//68
f 54//69 67//69 39//69
f 39//70 68//70 53//70
f 18//71 53//71 72//71
f 18//72 47//72 71//72
f 1//1 43//1 24//1
f 1//2 24//2 44//2
f 42//3 1//3 70//3
f 43//4 1//4 69//4
f 30//73 2//73 62//73
f 2//74 30//74 36//74
f 34//75 2//75 65//75
f 2//76 34//76 35//76
f 21//9 3//9 55//9
f 27//77 3//77 59//77
f 3//78 27//78 23//78
f 19//79 3//79 56//79
f 23//13 4//13 56//13
f 29//80 4//80 60//80
f 4//81 29//81 25//81
f 22//16 4//16 57//16
f 25//17 5//17 57//17
f 30//82 5//82 61//82
f 5//83 30//83 26//83
f 24//20 5//20 58//20
f 6//84 28//84 21//84
f 20//22 6//22 55//22
f 26//23 6//23 58//23
f 28//85 6//85 62//85
f 32//86 7//86 63//86
f 34//87 7//87 66//87
f 33//88 7//88 65//88
f 31//89 7//89 64//89
f 29//90 8//90 61//90
f 8//91 29//91 37//91
f 33//92 8//92 64//92
f 8//93 33//93 36//93
f 28//94 9//94 59//94
f 9//95 28//95 35//95
f 32//96 9//96 66//96
f 9//97 32//97 38//97
f 27//98 10//98 60//98
f 10//99 27//99 38//99
f 31//100 10//100 63//100
f 10//101 31//101 37//101
f 11//41 51//41 42//41
f 11//42 42//42 52//42
f 50//102 11//102 74//102
f 51//103 11//103 73//103
f 12//45 45//45 22//45
f 12//46 22//46 43//46
f 41//47 12//47 69//47
f 45//48 12//48 68//48
f 13//49 44//49 20//49
f 13//50 20//50 46//50
f 40//51 13//51 67//51
f 44//52 13//52 70//52
f 14//53 46//53 19//53
f 14//54 19//54 45//54
f 39//55 14//55 68//55
f 46//56 14//56 67//56
f 47//104 15//104 71//104
f 49//105 15//105 72//105
f 50//106 15//106 73//106
f 48//107 15//107 74//107
f 16//61 53//61 41//61
f 16//62 41//62 51//62
f 49//108 16//108 73//108
f 53//109 16//109 72//109
f 17//65 52//65 40//65
f 17//66 40//66 54//66
f 48//110 17//110 71//110
f 52//111 17//111 74//111
f 18//69 54//69 39//69
f 18//70 39//70 53//70
f 47//112 18//112 72//112
f 54//113 18//113 71//113
